<svg width="1024" height="1024" viewBox="-80 -80 160 160" xmlns="http://www.w3.org/2000/svg">

  <defs>
    <g id="dotRing">
      <circle cx="0" cy="-48" r="1" fill="white"/>
      <circle cx="14" cy="-46" r="1" fill="white"/>
      <circle cx="27" cy="-40" r="1" fill="white"/>
      <circle cx="38" cy="-30" r="1" fill="white"/>
      <circle cx="45" cy="-15" r="1" fill="white"/>
      <circle cx="48" cy="0" r="1" fill="white"/>
      <circle cx="45" cy="15" r="1" fill="white"/>
      <circle cx="38" cy="30" r="1" fill="white"/>
      <circle cx="27" cy="40" r="1" fill="white"/>
      <circle cx="14" cy="46" r="1" fill="white"/>
      <circle cx="0" cy="48" r="1" fill="white"/>
      <circle cx="-14" cy="46" r="1" fill="white"/>
      <circle cx="-27" cy="40" r="1" fill="white"/>
      <circle cx="-38" cy="30" r="1" fill="white"/>
      <circle cx="-45" cy="15" r="1" fill="white"/>
      <circle cx="-48" cy="0" r="1" fill="white"/>
      <circle cx="-45" cy="-15" r="1" fill="white"/>
      <circle cx="-38" cy="-30" r="1" fill="white"/>
      <circle cx="-27" cy="-40" r="1" fill="white"/>
      <circle cx="-14" cy="-46" r="1" fill="white"/>
    </g>
  </defs>

  <circle cx="0" cy="0" r="60" fill="none" stroke="white" stroke-width="0.25"/>
  <circle cx="0" cy="0" r="48" fill="none" stroke="white" stroke-width="0.14" stroke-dasharray="4 4"/>
  <circle cx="0" cy="0" r="36" fill="none" stroke="white" stroke-width="0.14"/>

  <use href="#dotRing"/>

</svg>